<svg width="82" height="84" viewBox="0 0 82 84" fill="none" xmlns="http://www.w3.org/2000/svg">
<rect width="82" height="84" rx="41" fill="white"/>
<path fill-rule="evenodd" clip-rule="evenodd" d="M53.3005 33.6C53.3005 40.5588 47.7936 46.2 41.0005 46.2C34.2074 46.2 28.7005 40.5588 28.7005 33.6C28.7005 26.6412 34.2074 21 41.0005 21C47.7936 21 53.3005 26.6412 53.3005 33.6ZM49.2005 33.6C49.2005 38.2392 45.5292 42 41.0005 42C36.4718 42 32.8005 38.2392 32.8005 33.6C32.8005 28.9608 36.4718 25.2 41.0005 25.2C45.5292 25.2 49.2005 28.9608 49.2005 33.6Z" fill="#1D192B"/>
<path d="M41.0005 52.5C27.728 52.5 16.4195 60.5397 12.1118 71.8033C13.1612 72.8708 14.2666 73.8804 15.4232 74.8273C18.631 64.4862 28.6938 56.7 41.0005 56.7C53.3072 56.7 63.3701 64.4862 66.5778 74.8274C67.7344 73.8805 68.8398 72.8708 69.8892 71.8033C65.5815 60.5397 54.273 52.5 41.0005 52.5Z" fill="#1D192B"/>
</svg>
